<svg xmlns="http://www.w3.org/2000/svg" width="170" height="30" viewBox="0 0 170 30">
    <defs>
        <clipPath id="ikrqvnwgda">
            <path data-name="사각형 26" style="fill:none" d="M0 0h30v30H0z"/>
        </clipPath>
        <clipPath id="v9171d0odb">
            <path data-name="사각형 27" style="fill:none" d="M0 0h130v9.279H0z"/>
        </clipPath>
    </defs>
    <g data-name="그룹 57">
        <g data-name="그룹 56" style="clip-path:url(#ikrqvnwgda)">
            <path data-name="패스 20" d="M15 30a15 15 0 1 1 15-15 15 15 0 0 1-15 15" style="fill:#319af6"/>
            <path data-name="패스 21" d="m18.674 3.888 7.041 7.041a6.84 6.84 0 0 1 0 9.673L23 23.316" transform="translate(-3.674 -.765)" style="stroke:#fff;stroke-miterlimit:10;stroke-width:2px;fill:none"/>
            <path data-name="패스 22" d="m16.459 28.918-7.042-7.04a6.84 6.84 0 0 1 0-9.673l1.83-1.83" transform="translate(-1.459 -2.041)" style="stroke:#fff;stroke-miterlimit:10;stroke-width:2px;fill:none"/>
            <path data-name="패스 23" d="M19.245 21.793a4.243 4.243 0 0 1-1.822.367 3.013 3.013 0 0 1-3.157-3.236 3.222 3.222 0 0 1 3.407-3.368 3.858 3.858 0 0 1 1.6.328l-.262.892a2.672 2.672 0 0 0-1.336-.3 2.194 2.194 0 0 0-2.241 2.4 2.175 2.175 0 0 0 2.2 2.372 3.263 3.263 0 0 0 1.415-.315z" transform="translate(-2.807 -3.061)" style="fill:#fff"/>
        </g>
    </g>
    <g data-name="그룹 59">
        <g data-name="그룹 58" transform="translate(40 10.36)" style="clip-path:url(#v9171d0odb)">
            <path data-name="패스 24" d="M6.812 8.839a5.76 5.76 0 0 1-2.374.426A4.2 4.2 0 0 1 0 4.719 4.471 4.471 0 0 1 4.692 0a4.819 4.819 0 0 1 2.134.4l-.28.946A4.227 4.227 0 0 0 4.733.973c-2.107 0-3.507 1.347-3.507 3.706a3.267 3.267 0 0 0 3.453 3.614 4.653 4.653 0 0 0 1.893-.373z"/>
            <path data-name="패스 25" d="M18.993 4.546c0 3.093-1.879 4.733-4.173 4.733-2.374 0-4.039-1.839-4.039-4.559 0-2.854 1.773-4.72 4.173-4.72 2.453 0 4.039 1.88 4.039 4.546m-6.973.147c0 1.919 1.041 3.64 2.867 3.64s2.882-1.694 2.882-3.733c0-1.786-.934-3.653-2.867-3.653s-2.88 1.773-2.88 3.746"/>
            <path data-name="패스 26" d="M31.4 5.186c-.067-1.253-.147-2.76-.133-3.879h-.04a54.671 54.671 0 0 1-1.133 3.413l-1.587 4.358h-.88l-1.453-4.28c-.427-1.266-.787-2.426-1.041-3.493h-.026c-.026 1.12-.094 2.626-.174 3.973l-.24 3.852h-1.105l.626-8.98h1.48l1.533 4.346c.373 1.106.679 2.094.907 3.027h.04c.226-.907.546-1.893.946-3.027L30.72.15h1.48l.56 8.986h-1.133z"/>
            <path data-name="패스 27" d="M37.874.254a13.432 13.432 0 0 1 2.227-.173 3.69 3.69 0 0 1 2.519.747 2.416 2.416 0 0 1 .787 1.879 2.65 2.65 0 0 1-.693 1.92 3.725 3.725 0 0 1-2.747.987 3.993 3.993 0 0 1-.933-.08v3.6h-1.16zm1.16 4.333a3.888 3.888 0 0 0 .96.094c1.4 0 2.253-.68 2.253-1.919 0-1.186-.84-1.76-2.12-1.76a4.879 4.879 0 0 0-1.093.094z"/>
            <path data-name="패스 28" d="m48.628 6.305-.934 2.826h-1.2L49.549.15h1.4l3.066 8.986h-1.24l-.96-2.826zm2.947-.907-.88-2.586c-.2-.587-.333-1.121-.467-1.64h-.026c-.134.533-.281 1.08-.453 1.627l-.88 2.6z"/>
            <path data-name="패스 29" d="M58.663 9.132V.15h1.266l2.88 4.546a25.685 25.685 0 0 1 1.613 2.92l.026-.013c-.107-1.2-.133-2.294-.133-3.693V.15h1.093v8.982h-1.173l-2.852-4.56a28.369 28.369 0 0 1-1.679-3l-.04.013c.067 1.133.093 2.213.093 3.706v3.84z"/>
            <path data-name="패스 30" d="M72.669 9.132V5.319L69.829.15h1.321l1.266 2.48c.346.679.612 1.226.892 1.853h.027c.254-.586.56-1.174.907-1.853L75.536.15h1.32l-3.014 5.155v3.827z"/>
            <path data-name="패스 31" d="M87.367 9.132V.15h1.266l2.881 4.546a25.456 25.456 0 0 1 1.613 2.92l.025-.013c-.106-1.2-.132-2.294-.132-3.693V.15h1.093v8.982h-1.174l-2.852-4.559a28.235 28.235 0 0 1-1.679-3l-.04.013c.065 1.133.092 2.213.092 3.706v3.84z"/>
            <path data-name="패스 32" d="m100.921 6.305-.933 2.826h-1.2L101.84.15h1.4l3.065 8.986h-1.24l-.96-2.826zm2.946-.907-.88-2.586c-.2-.587-.333-1.121-.466-1.64h-.026c-.135.533-.281 1.08-.454 1.627l-.88 2.6z"/>
            <path data-name="패스 33" d="M118.475 5.186c-.067-1.253-.147-2.76-.134-3.879h-.039a54.671 54.671 0 0 1-1.133 3.413l-1.587 4.359h-.88l-1.453-4.28c-.427-1.266-.786-2.426-1.041-3.493h-.026c-.026 1.12-.093 2.626-.173 3.973l-.241 3.852h-1.106l.627-8.981h1.48l1.533 4.346c.374 1.106.679 2.094.907 3.027h.04c.226-.907.547-1.893.946-3.027l1.6-4.346h1.48l.56 8.986h-1.133z"/>
            <path data-name="패스 34" d="M129.6 4.919h-3.492v3.24H130v.973h-5.052V.15h4.853v.972h-3.692v2.84h3.492z"/>
        </g>
    </g>
</svg>
