<svg xmlns="http://www.w3.org/2000/svg" width="24" height="24" viewBox="0 0 24 24">
    <g data-name="그룹 21202">
        <path data-name="패스 27596" d="M.6 14.9a.645.645 0 0 1-.6-.6V1.7a.644.644 0 0 1 .6-.6h2.3V.6a.646.646 0 0 1 .6-.6.645.645 0 0 1 .6.6v.5h6.3V.6a.6.6 0 0 1 1.2 0v.5h2.2a.641.641 0 0 1 .6.6v12.6a.645.645 0 0 1-.6.6zm.6-1.2h12V2.3h-1.6v.2a.6.6 0 1 1-1.2 0v-.2H4.1v.2a.645.645 0 0 1-.6.6.646.646 0 0 1-.6-.6v-.2H1.2zm8.7-3V9.3h1.4v1.4zm-3.4 0V9.3h1.4v1.4zm-3.4 0V9.3h1.4v1.4zm6.8-3.5V5.8h1.4v1.4zm-3.4 0V5.8h1.4v1.4zm-3.4 0V5.8h1.4v1.4z" transform="translate(5 5)" style="fill:#383838"/>
    </g>
</svg>
