<svg xmlns="http://www.w3.org/2000/svg" width="20" height="20" viewBox="0 0 20 20">
    <path d="M12.834 8A5.834 5.834 0 0 0 1.166 8 5.734 5.734 0 0 0 7 13.834 5.732 5.732 0 0 0 12.834 8zM7 12.667A4.667 4.667 0 1 1 11.668 8 4.673 4.673 0 0 1 7 12.667zM6.254 8.69 4.9 7.417l-.814.837 2.185 2.08L10.1 6.488l-.83-.821L6.254 8.69zM.468 5.5A2.915 2.915 0 0 1 4.5 1.47 7.022 7.022 0 0 0 .468 5.5zM11.086 1a2.912 2.912 0 0 0-1.586.468A7.035 7.035 0 0 1 13.533 5.5 2.916 2.916 0 0 0 11.086 1z" transform="translate(3 3)" style="fill:#333;fill-rule:evenodd"/>
</svg>
