<svg xmlns="http://www.w3.org/2000/svg" width="40" height="40" viewBox="0 0 40 40">
    <defs>
        <clipPath id="pokftw4m8a">
            <path data-name="사각형 76" style="fill:none" d="M0 0h15v17.797H0z"/>
        </clipPath>
    </defs>
    <g transform="translate(-1520 -354)">
        <circle data-name="타원 7" cx="20" cy="20" r="20" transform="translate(1520 354)" style="fill:#fff"/>
        <path data-name="사각형 72" transform="translate(1539.147 365)" style="fill:#777" d="M0 0h2.705v2.103H0z"/>
        <path data-name="사각형 73" transform="translate(1533 366.6)" style="fill:#777" d="M0 0h15v1.894H0z"/>
        <g data-name="그룹 98">
            <g data-name="그룹 97" style="clip-path:url(#pokftw4m8a)" transform="translate(1533 365)">
                <path data-name="패스 62" d="M15.9 31.441H5.345a.979.979 0 0 1-.979-.979v-11.4h1.958v10.42h8.6V19.063h1.958v11.4a.979.979 0 0 1-.979.979" transform="translate(-3.125 -13.644)" style="fill:#777"/>
                <path data-name="사각형 74" transform="translate(4.703 5.42)" style="fill:#777" d="M0 0h1.958v11.399H0z"/>
                <path data-name="사각형 75" transform="translate(8.234 5.42)" style="fill:#777" d="M0 0h1.958v11.399H0z"/>
            </g>
        </g>
    </g>
</svg>
